<?xml version="1.0" encoding="UTF-8"?>
<!-- Created with Inkscape (http://www.inkscape.org/) -->
<svg width="480mm" height="480mm" version="1.1" viewBox="0 0 480 480" xmlns="http://www.w3.org/2000/svg">
 <g fill="#80e5ff">
  <path d="m300.29 258.98c-5.5988 0.0943-50.938-0.94161-74.675 9.5329-30.726 7.3085-61.646 13.326-92.701 20.711-19.566 6.4122-56.346 15.19-66.341 8.8749-13.148-25.932 28.155-34.455 47.824-39.118 36.978-1.6228 73.642-7.3766 111.1-4.8801 25.029 8.1498 55.805-15.971 74.795 4.8801z"/>
  <path d="m291.79 245.64c5.4355 0.74369 43.076-12.22 58.06-23.819 24.021-15.186 45.043-28.541 72.947-31.263 16.423-4.1371 41.823-7.1571 22.331 14.887-21.345 4.7403-51.828 8.2899-74.436 20.842-27.443 0.51357-54.182 31.12-78.902 19.353z"/>
  <path d="m262.7 240.12c-4.8602 1.0276-46.323 1.3043-69.225-5.6257-35.52-8.0063-72.208 0.90639-107.49-8.6833-22.385-19.234-50.564 29.47-22.496 32.993 30.843-5.3397 59.983-7.9541 92.463-4.8868 32.692-6.2172 64.013-4.0298 96.331-8.1712l5.2348-2.7365z"/>
  <path d="m266.15 237.52c14.136-0.92808 50.984-28.529 70.749-43.797 24.015-13.317 43.888-30.89 62.327-50.535 36.006-7.1542 39.196 49.493 0 42.955-29.505 6.9139-55.51 26.081-84.225 36.217-15.711 5.3188-31.756 26.481-48.851 15.161z"/>
 </g>
 <path d="m109.26 157.13c-1.2304 9.07 1.4384-5.9803 4.4646 8.6602 8.5688 4.5282 11.404 16.852 24.555 20.568 16.545 2.8852 32.454 11.721 47.994 16.238 18.756 8.0056 31.713 12.349 54.209 20.898 16.126 7.3068 34.67 12.649 53.39 18.886 20.765 6.5947 40.253 13.115 60.973 17.607 12.165 3.0517 36.056 30.035 10.558 30.546-23.214-1.7461-41.586-15.805-61.935-25.15-18.67-7.2385-34.28-14.221-52.022-23.179-10.348-4.4328-30.398-7.6716-39.502-13.627-16.837-11.097-36.909-13.088-53.575-20.568-8.3401-1.1342-15.972-7.7687-22.323-10.825-7.1959-3.9656-17.103-6.4843-21.087-13.471-2.0425-4.1246-18.825-20.203-5.7004-26.583z" fill="#c837ab"/>
 <g fill="#37c837">
  <path d="m153.15 190.88c-2.8689-0.45878 0.13717 0.50993-0.26065-2.1e-4 -2.2103 0.1518-5.4036-0.91765-5.5167 2.1612-1.298 1.4906-1.1246 4.6533-1.1608 6.9078-0.43076 2.4805 2.0496 2.7044 2.6201 4.058 0.90051 0.589 1.2491 1.7428 2.9363 2.2454 1.9116 0.89439 3.9378 1.5236 5.7519 3.0853 2.4772 1.1441 4.6458 0.89629 7.0294 1.9237 1.9393 1.2398 3.293 1.5597 5.8537 1.6852 3.3188 1.1497 2.5735-2.8133 0.70967-3.4124-2.2896-0.70179-3.1009-4.9455-1.3818-6.5634-0.0607-1.7659 4.3849-2.7313 1.7272-4.8362-8e-3 -1.7016-2.4786-2.4404-3.4544-3.109-1.9497 0.0468-4.4405-0.55773-5.5271-1.3818-1.5047-0.45925-3.578-0.52375-5.1816-1.5545-1.3333-0.30953-2.1377-1.1657-4.1453-1.2091z"/>
  <path d="m209.41 211.85c-1.7531 0.18907-3.8373-0.51793-5.2987 0.68099-1.2429 1.6869-2.3588 2.8213-1.9762 5.1956 0.2289 2.454-1.2062 7.1556 2.4002 6.5216 3.705 0.32892 5.487 4.1569 9.1072 4.599 2.0037 0.34033 3.3289 0.96865 4.749 1.3112 0.86387 0.6973 1.9089 1.6579 3.4544 2.0727 0.53811 0.68237 4.0393 1.4946 4.8902 0.24359-0.30032-2.6406-4.1511-2.323-3.9455-4.8548-0.26635-2.3247 0.37889-4.5067 2.8872-5.2259 0.71456-0.80181 3.232-0.87582 3.324-1.9064 1.5458-0.30758 0.7142-2.9654 0.0984-3.1105-2.8081 0.21237-5.4042-0.40231-7.904-1.385 0.15235-1.2489-4.6821-0.7947-5.7043-1.8557-2.2686-0.12615-4.0742-1.3897-6.0818-2.2864z"/>
  <path d="m276.01 236.97c-3.1262-0.42455 0.50516 0.52712-0.48753 0-2.8168 0.20308-5.3948-0.65389-8.243-0.37146-2.1558-0.0516-3.6013 0.98371-4.3963 3.135-2.2146 3.0454-1.8113 8.253 1.3899 9.8339 3.5188 1.4222 7.799 2.8408 11.715 3.8001 3.7328 1.0216 6.7709 3.7631 9.6944 5.5381 1.1218 0.41403 2.8147 2.1822 4.1453 2.2454 1.2192 1.084 5.5897 1.3711 4.5237-0.33723-2.0775-1.2026-3.205-2.7796-3.3179-5.1124-0.88933-2.7842 0.51767-5.9122 1.7114-7.723 1.4342-1.4032 5.188-2.772 7.446-0.99053 5.3416 1.39 0.94798-4.4241-2.0726-3.4544-2.6508-1.7163-7.1164-2.3146-10.4-3.9768-3.8972-0.96358-7.4931-2.8496-11.708-2.5866z"/>
  <path d="m105.01 160.29c-0.58831 0.93478 0.29065 2.0611 0.17272 0.51816-0.30648-1.3832-0.1235 1.0761-0.17272 1.5494 0.0959 2.7412-0.26562 5.5187 0.25177 8.2244 0.36312 1.952 2.8516 4.3277 4.6553 3.3038-0.36124-1.5069-1.388-2.1586-1.0943-3.9208 0.52923-2.3073 3.4116-4.0658 5.5036-2.7983 1.6378 2.1943 1.7975-0.92108 0.94792-2.0742-0.11304-1.6538-0.73754-2.9532-1.2285-4.3094-0.68173-0.80503-1.6398-1.8492-1.7814-2.9112-1.9467-1.6916 0.0754-4.733-0.69088-6.9088-2.0277-0.3175-4.5194 0.15094-5.1816 2.4181 0.15456 2.0986-0.85448 3.6576-1.2459 6.0039-0.0487 0.30112-0.0926 0.60298-0.13583 0.90493z"/>
 </g>
 <path d="m354.38 264.43c-1.277-0.42711-0.80799 0.45258 0 0-1.9692-0.043-3.9971-0.0931-5.7591 0.96997-1.5343 1.0584-1.6338 1.7323-2.3145 3.2828-0.5607 2.1577-1.0774 4.7874 0.18345 6.7934 0.68525 1.7466 0.9123 3.1743 2.4798 4.2832 1.2757 1.1752 3.5384 1.6657 4.9595 2.8179 2.3352 0.87046 4.9364 0.53619 7.4393 1.0144 1.1677-0.88163 2.3488-2.3711 2.659-4.131 0.77697-1.9152 0.86199-4.3533 0.0729-6.3281-1.094-2.255-1.9702-4.6873-3.2955-6.7865-0.69813-0.7497-1.4036-1.9866-2.4551-1.8845-0.73618-0.7136-2.8374 0.0328-3.9697-0.0317z" fill="#ff0"/>
 <path d="m359.79 264.66c0.56052-1.3274-0.66955-0.75232 0 0 0.80511-0.86717 1.3939-1.9858 2.1292-2.2842 0.85474-0.10163 2.2907-1.2404 3.1808-1.2928 1.0173-0.42141 3.5844-0.51938 4.5984-0.0152 1.7654 0.64581 3.0911 2.0005 4.0386 3.8969 0.81264 1.8608 1.3946 3.762 1.5661 5.8129 0.12407 2.448 0.17684 5.3872-1.7617 7.183-1.0885 1.4624-3.0593 2.0547-4.0578 2.2543-1.2077 0.79114-3.2276-0.33403-4.5087-0.6763-0.65093-1.0042-1.9069-1.8835-2.5925-2.9306-0.53532-0.4648-0.55357-0.85842-1.2399-1.1271-1.2742-1.7044-2.157-3.7166-2.2226-5.8154-0.62582-1.3768-0.39707-3.67 0.87004-5.0053z" fill="#ff0"/>
 <path d="m348.97 265.46c-0.59953-0.15283-0.4212 0.1369 0 0-0.85018 0.24746-1.5696 0.81215-1.7668 1.7257-0.0964 0.80115-0.42771 1.6134-0.31818 2.4444-0.21805 1.0984 1.0357 1.6682 1.5966 2.4164 0.80595 0.29583 1.6946 0.80599 2.6634 0.5506 0.85601 0.14945 1.5287-0.0615 2.0551-0.44694 0.57904-0.79495 1.3982-1.5072 1.4382-2.5751 0.1666-1.0429 0.0512-2.0318-0.5106-2.9078-0.44443-0.28255-0.84586-1.0722-1.5384-1.202-0.37234-0.22978-0.65171-0.26519-0.74663-0.40066-0.93593-0.1916-2.0883-0.68346-2.7772 0.31259z" fill="#1a1a1a"/>
 <path d="m362.91 261.95c-0.43321 0.0344-0.58372 0.58678-0.13546 0.16592 0.31449-0.27987-0.8133 0.64191-0.87858 0.97464-0.39337 0.30916-0.70112 0.89281-0.88971 1.4857-0.26699 0.95188-0.12954 1.9993 0.77864 2.5693 0.82589 0.5932 1.7502 1.266 2.8209 1.1729 0.88253 0.0962 1.8132 0.0514 2.3645-0.77179 0.60092-0.5807 0.81971-1.4841 1.1402-2.2932-7e-3 -0.8975-0.53537-1.5987-1.0859-2.2654-0.57897-0.80104-1.532-1.208-2.337-1.713-0.81467-0.1095-1.523-0.34392-1.7776 0.67491z" fill="#1a1a1a"/>
</svg>
